<?xml version="1.0" encoding="UTF-8" standalone="no"?> <svg id="Layer_1" data-name="Layer 1" xmlns="http://www.w3.org/2000/svg" viewBox="0 0 24 24"><title>connection, internet, network, wifi, wireless</title><path d="M19,6.48a6.37,6.37,0,0,0-4.75,2.23L15.75,10A4.39,4.39,0,0,1,19,8.48a4.42,4.42,0,0,1,3.26,1.57l1.48-1.34A6.33,6.33,0,0,0,19,6.48Z"/><path d="M16.26,11.33l1.49,1.34a1.57,1.57,0,0,1,2.5,0l1.49-1.34A3.64,3.64,0,0,0,16.26,11.33Z"/><path d="M18,21.88a.12.12,0,0,1-.12.12H6.12A.12.12,0,0,1,6,21.88V2.12A.12.12,0,0,1,6.12,2H8V3.31A1.69,1.69,0,0,0,9.69,5h4.62A1.69,1.69,0,0,0,16,3.31V2h1.88a.12.12,0,0,1,.12.12V6h2V2.12A2.12,2.12,0,0,0,17.88,0H6.12A2.12,2.12,0,0,0,4,2.12V21.88A2.12,2.12,0,0,0,6.12,24H17.88A2.12,2.12,0,0,0,20,21.88V16H18ZM10,2h4V3H10Z"/><circle cx="19" cy="14" r="1"/></svg>