<?xml version="1.0" encoding="iso-8859-1"?>
<!-- Generator: Adobe Illustrator 19.0.0, SVG Export Plug-In . SVG Version: 6.00 Build 0)  -->
<svg version="1.1" id="Layer_1" xmlns="http://www.w3.org/2000/svg" xmlns:xlink="http://www.w3.org/1999/xlink" x="0px" y="0px"
	 viewBox="0 0 291.837 291.837" style="enable-background:new 0 0 291.837 291.837;" xml:space="preserve">
<g>
	<g>
		<g>
			<path d="M245.455,76.761c-5.165-2.373-11.331-0.117-13.72,5.08L182.509,188.95c-33.293-49.846-75.755-113.645-79.187-119.414
				c-2.024-3.946-6.42-6.235-10.891-5.525c-7.045,1.139-7.045,1.139-38.516,86.445c-17.142,46.461-24.457,66.797-27.588,76.11
				C11.696,227.349,0,239.395,0,254.216c0,15.33,12.475,27.805,27.8,27.805c15.33,0,27.8-12.475,27.8-27.805
				c0-8.407-3.83-15.86-9.741-20.961c7.077-20.262,36.54-100.768,50.313-136.778c11.431,17.433,34.119,51.589,79.41,119.351
				c2.082,3.109,5.631,4.895,9.424,4.561c3.729-0.297,7.013-2.585,8.581-5.991l56.95-123.917
				C252.924,85.29,250.651,79.145,245.455,76.761z M27.8,261.336c-3.92,0-7.114-3.194-7.114-7.114c0-3.92,3.194-7.114,7.114-7.114
				s7.114,3.189,7.114,7.114C34.914,258.147,31.719,261.336,27.8,261.336z"/>
			<path d="M264.037,9.816c-15.33,0-27.805,12.475-27.805,27.805c0,15.33,12.475,27.8,27.805,27.8c15.33,0,27.8-12.475,27.8-27.8
				C291.842,22.29,279.367,9.816,264.037,9.816z M264.037,44.735c-3.92,0-7.114-3.189-7.114-7.114c0-3.925,3.194-7.114,7.114-7.114
				c3.92,0,7.114,3.194,7.114,7.114C271.151,41.546,267.957,44.735,264.037,44.735z"/>
		</g>
	</g>
</g>
<g>
</g>
<g>
</g>
<g>
</g>
<g>
</g>
<g>
</g>
<g>
</g>
<g>
</g>
<g>
</g>
<g>
</g>
<g>
</g>
<g>
</g>
<g>
</g>
<g>
</g>
<g>
</g>
<g>
</g>
</svg>
