<?xml version="1.0" encoding="iso-8859-1"?>
<!-- Generator: Adobe Illustrator 18.0.0, SVG Export Plug-In . SVG Version: 6.00 Build 0)  -->
<!DOCTYPE svg PUBLIC "-//W3C//DTD SVG 1.1//EN" "http://www.w3.org/Graphics/SVG/1.1/DTD/svg11.dtd">
<svg version="1.1" id="Capa_1" xmlns="http://www.w3.org/2000/svg" xmlns:xlink="http://www.w3.org/1999/xlink" x="0px" y="0px"
	 viewBox="0 0 492.171 492.171" style="enable-background:new 0 0 492.171 492.171;" xml:space="preserve">
<path d="M443.38,312.08c-0.475-4.548-3.72-8.315-8.131-9.491c-4.41-1.175-9.096,0.5-11.769,4.203
	c-4.129,5.722-8.718,10.907-13.509,15.696c-8.894-51.405-57.95-96.446-110.726-105.51c-21.082-3.614-50.456-2.72-80.675,2.278
	c-1.594-15.143-7.341-32.883-15.98-49.715c9.273-9.048,18.378-20.093,26.42-33.118c15.319-24.818,30.653-77.102,40.571-115.347
	c1.424-5.514-1.69-11.922-7.56-15.552c-5.875-3.63-13.007-3.55-17.29,0.185c-29.777,25.993-69.664,63.119-84.991,87.929
	c-4.041,6.545-7.389,13.081-10.407,19.585c-6.448-2.584-13.049-3.985-19.731-3.55c-3.147,0.201-6.198,0.861-9.192,1.763
	c-0.396-2.697-0.661-5.345-1.191-8.09c-4.854-24.874-25.864-67.305-42.076-97.589c-2.343-4.355-8.106-6.601-14-5.466
	C57.251,1.435,52.744,5.693,52.22,10.604c-3.711,34.147-7.292,81.368-2.455,106.25c4.066,20.897,11.633,39.058,20.585,51.536
	c-9,22.032-13.638,46.198-12.423,64.825c1.478,22.695,12.438,45.373,28.671,61.824c-8.377,21.547,0.234,53.553,22.81,64.857v44.386
	c-16.052,8.243-22.523,27.893-14.435,44.074c5.032,10.055,14.546,16.115,24.892,17.605c3.22,15.303,16.654,26.21,32.093,26.21
	c1.514,0,3.044-0.104,4.582-0.321l26.187-3.639c16.3-2.262,28.432-16.204,28.432-32.659v-24.327c4.482,1.973,8.878,3.8,13.226,5.467
	c-5.481,5.892-8.902,13.725-8.902,22.403c0,18.208,14.763,32.972,32.972,32.972h114.742c18.209,0,32.972-14.765,32.972-32.972
	c0-7.608-2.68-14.522-7.011-20.11c11.641-4.507,21.051-10.843,28.482-18.522C445.876,391.291,446.736,343.749,443.38,312.08z"/>
<g>
</g>
<g>
</g>
<g>
</g>
<g>
</g>
<g>
</g>
<g>
</g>
<g>
</g>
<g>
</g>
<g>
</g>
<g>
</g>
<g>
</g>
<g>
</g>
<g>
</g>
<g>
</g>
<g>
</g>
</svg>
