<?xml version="1.0" encoding="iso-8859-1"?>
<!-- Generator: Adobe Illustrator 16.0.0, SVG Export Plug-In . SVG Version: 6.00 Build 0)  -->
<!DOCTYPE svg PUBLIC "-//W3C//DTD SVG 1.1//EN" "http://www.w3.org/Graphics/SVG/1.1/DTD/svg11.dtd">
<svg version="1.1" id="Capa_1" xmlns="http://www.w3.org/2000/svg" xmlns:xlink="http://www.w3.org/1999/xlink" x="0px" y="0px"
	 width="185.846px" height="185.846px" viewBox="0 0 185.846 185.846" style="enable-background:new 0 0 185.846 185.846;"
	 xml:space="preserve">
<g>
	<g>
		<path d="M165.433,142.928c-10.133-10.286-21.822-18.973-33.573-27.326c9.581-15.976,16.967-32.039,14.208-51.66
			c-2.633-18.718-12.81-34.461-27.439-46.165C103.787,5.903,84.731-1.375,65.62,0.217c-18.388,1.53-34.044,12.657-45.577,26.428
			c-24.015,28.676-19.977,68.43,4.894,95.272c19.289,20.816,54.821,27.487,81.269,18.426c2.667-0.914,5.13-2.085,7.404-3.458
			c0.18,4.791,6.417,10.49,9.05,13.917c6.136,7.983,12.734,15.648,20.046,22.58c9.488,8.993,26.315,20.012,36.494,5.233
			C187.725,166.238,173.586,151.205,165.433,142.928z M33.838,111.95c-1.834-2.292-3.544-4.679-5.117-7.157
			c1.699,2.379,3.416,4.743,5.142,7.104C33.855,111.914,33.846,111.932,33.838,111.95z M116.037,101.602
			c-0.898,0.748-1.135,1.651-0.961,2.486c-1.875,1.437-3.369,3.357-5.32,5.115c-6.014,5.418-12.269,9.75-20.179,11.787
			c-15.863,4.086-32.911-3.682-44.761-13.69C27.515,92.688,23.52,66.622,34.144,47.052c1.614-2.203,3.13-4.509,4.606-6.861
			c15.139-18.069,43.147-18.621,62.385-5.879c11.351,7.518,17.98,19.524,21.212,32.412C125.23,78.215,125.99,93.309,116.037,101.602
			z"/>
		<path d="M80.051,88.442c-5.065,2.121-8.148,6.829-13.776,8.435c-3.659,1.044-7.212-0.418-9.109-3.702
			c-0.606-1.05-2.404-6.429-1.489-7.229c1.221-1.066-0.331-2.668-1.611-2.088c-7.444,3.376-0.488,15.707,4.704,17.867
			c4.647,1.934,9.117,0.961,13.587-0.956c3.905-1.674,9.293-5.16,10.669-9.352C83.557,89.805,81.76,87.726,80.051,88.442z"/>
		<path d="M98.445,51.393c-2.646-2.139-6.106,1.161-3.776,3.777c2.593,2.913,4.38,5.317,2.127,9.038
			c-1.203,1.985-3.38,3.638-5.426,4.708c-2.333,1.221-6.618,1.918-8.191,4.125l0.051-0.007c-0.296,0.466-0.294,1.094,0.159,1.634
			c2.201,2.623,10.425-1.285,12.489-2.927c3.277-2.605,6.229-4.947,7.321-9.184C104.297,58.3,101.623,53.961,98.445,51.393z"/>
		<path d="M82.04,46.222c-1.121-5.18-6.012-8.262-11.166-7.981c-5.025,0.274-9.638,3.465-12.866,7.136
			c-2.993,3.401-5.583,8.091-5.017,12.772c0.604,5.008,5.008,7.372,9.678,7.42c1.708,0.019,1.945-2.392,0.392-2.893
			c-2.976-0.961-5.252-2.412-5.092-5.76c0.142-2.972,2.384-5.947,4.321-8.02c2.273-2.432,5.098-4.33,8.409-4.922
			c3.281-0.587,5.651,2.346,7.76,4.334C80.061,49.819,82.492,48.311,82.04,46.222z"/>
	</g>
</g>
<g>
</g>
<g>
</g>
<g>
</g>
<g>
</g>
<g>
</g>
<g>
</g>
<g>
</g>
<g>
</g>
<g>
</g>
<g>
</g>
<g>
</g>
<g>
</g>
<g>
</g>
<g>
</g>
<g>
</g>
</svg>
